<?xml version="1.0" encoding="UTF-8"?><svg id="_이어_1" xmlns="http://www.w3.org/2000/svg" viewBox="0 0 373.33 121.21"><defs><style>.cls-1{fill:#dc2715;}.cls-2{fill:#4f5b54;}</style></defs><path class="cls-2" d="M304.79,29.39l-37.28-.04,26.63-26.02h75.46V29.28h-36.56V115.28h-28.25V29.39Z"/><path class="cls-2" d="M260.72,59.18c-6.33-7.89-16.04-12.95-26.94-12.95h-21.88c-4.66,0-8.44-3.78-8.44-8.44s3.78-8.44,8.44-8.44h29.12l26.69-26.08h-58.36c-19.07,0-34.52,15.46-34.52,34.52h0c0,8.17,2.84,15.66,7.58,21.58,6.33,7.89,16.04,12.95,26.94,12.95h21.88c4.66,0,8.44,3.78,8.44,8.44s-3.78,8.44-8.44,8.44h-56.4v26.08h58.94c19.07,0,34.52-15.46,34.52-34.52h0c0-8.17-2.84-15.66-7.58-21.58Z"/><path class="cls-1" d="M65.58,68.66h19.6v20.67h-23.54c-16.58,0-30.02-13.44-30.02-30.02h0c0-16.58,13.44-30.02,30.02-30.02h44.23L132.43,3.33H58.75C27.84,3.33,2.78,28.39,2.78,59.31h0c0,30.91,25.06,55.97,55.97,55.97h54.68V47.38h-26.07l-21.78,21.28Z"/><polygon class="cls-2" points="130.01 115.28 158.26 115.28 158.26 3.27 130.01 30.98 130.01 115.28"/></svg>